<svg width="153" height="42" viewBox="0 0 153 42" fill="none" xmlns="http://www.w3.org/2000/svg">
<path d="M21 42C32.598 42 42 32.598 42 21C42 9.40202 32.598 0 21 0C9.40202 0 0 9.40202 0 21C0 32.598 9.40202 42 21 42Z" fill="#F3F3F3"/>
<path fill-rule="evenodd" clip-rule="evenodd" d="M27.8495 10.0731C26.1481 9.22496 24.1563 9.1851 22.4222 9.96447L11.9861 14.6556C11.2879 14.9694 10.8388 15.6636 10.8388 16.4291V17.6663C10.8388 18.4036 11.2559 19.0775 11.9157 19.4065L20.3518 23.6122C20.8981 23.8844 21.5406 23.8844 22.087 23.6122L30.597 19.3696C32.0915 18.6245 33.8481 19.7117 33.8481 21.3815V22.9663C33.8481 23.8187 33.3659 24.598 32.6029 24.9784L22.2223 30.1533C21.5908 30.4683 20.848 30.4683 20.2164 30.1533L12.1296 26.1217C11.5362 25.8258 10.8388 26.2574 10.8388 26.9205C10.8388 27.2588 11.0302 27.5684 11.3331 27.7193L20.3623 32.2207C20.9048 32.4913 21.5425 32.4933 22.087 32.2257L29.1729 28.7471C29.7302 28.4733 30.4034 28.7032 30.6771 29.2604C30.9505 29.8177 30.7207 30.4913 30.1634 30.765L22.2141 34.6679C21.5849 34.9767 20.8476 34.9744 20.2203 34.6617L9.83585 29.4848C9.07293 29.1045 8.59082 28.3252 8.59082 27.4727V25.4781C8.59082 23.8082 10.3473 22.7213 11.8418 23.4664L20.3518 27.7092C20.8981 27.9814 21.5406 27.9814 22.087 27.7092L31.2072 23.1623C31.4479 23.0421 31.6 22.7963 31.6 22.5276C31.6 22.0007 31.0458 21.6577 30.5745 21.8929L22.2223 26.0568C21.5908 26.3714 20.848 26.3714 20.2164 26.0568L9.83585 20.8814C9.07293 20.5011 8.59082 19.7222 8.59082 18.8696V15.1713C8.59082 14.2863 9.10999 13.4837 9.91717 13.1209L21.5005 7.91409C23.8494 6.8583 26.5479 6.91231 28.8525 8.06128C33.0568 10.1572 32.9693 16.1859 28.7059 18.1588L22.1865 21.1754C21.5612 21.4648 20.8383 21.4515 20.2238 21.1397L14.0591 18.0067C13.5057 17.7255 13.2851 17.0489 13.5663 16.4955C13.8475 15.942 14.5241 15.7214 15.0775 16.0026L20.4011 18.7079C20.9324 18.9778 21.5581 18.9893 22.0986 18.7391L27.7616 16.1186C30.3143 14.9374 30.3668 11.328 27.8495 10.0731Z" fill="#060606"/>
<path d="M54.55 32V10.07H69.918C73.318 10.07 75.868 10.546 77.568 11.498C79.2907 12.45 80.152 13.9233 80.152 15.918C80.152 17.21 79.8007 18.2187 79.098 18.944C78.3953 19.6467 77.398 20.168 76.106 20.508C74.814 20.8253 73.284 21.018 71.516 21.086L71.686 20.848C72.978 20.8707 74.1907 20.9387 75.324 21.052C76.4573 21.1653 77.4433 21.4033 78.282 21.766C79.1433 22.106 79.812 22.6047 80.288 23.262C80.7867 23.8967 81.036 24.758 81.036 25.846C81.036 27.2287 80.628 28.3733 79.812 29.28C79.0187 30.164 77.8853 30.8327 76.412 31.286C74.9613 31.7393 73.2613 31.9773 71.312 32H54.55ZM60.296 27.444H70.972C72.332 27.444 73.3633 27.2513 74.066 26.866C74.7687 26.458 75.12 25.8233 75.12 24.962C75.12 24.35 74.916 23.8967 74.508 23.602C74.1227 23.3073 73.59 23.1147 72.91 23.024C72.2527 22.9333 71.5047 22.888 70.666 22.888H60.296V27.444ZM60.296 19.386H69.918C71.2553 19.386 72.2753 19.2047 72.978 18.842C73.6807 18.4793 74.032 17.8673 74.032 17.006C74.032 16.1447 73.6807 15.5327 72.978 15.17C72.2753 14.8073 71.3007 14.626 70.054 14.626H60.296V19.386ZM100.164 32.51C96.6058 32.51 93.6478 32.0567 91.2905 31.15C88.9331 30.2433 87.1538 28.94 85.9525 27.24C84.7738 25.54 84.1845 23.4773 84.1845 21.052C84.1845 18.604 84.7738 16.53 85.9525 14.83C87.1538 13.13 88.9331 11.8267 91.2905 10.92C93.6478 10.0133 96.6058 9.56 100.164 9.56C103.723 9.56 106.681 10.0133 109.038 10.92C111.396 11.8267 113.164 13.13 114.342 14.83C115.544 16.53 116.144 18.604 116.144 21.052C116.144 23.4773 115.544 25.54 114.342 27.24C113.164 28.94 111.396 30.2433 109.038 31.15C106.681 32.0567 103.723 32.51 100.164 32.51ZM100.164 27.818C102.136 27.818 103.859 27.5913 105.332 27.138C106.806 26.662 107.95 25.9253 108.766 24.928C109.605 23.9307 110.024 22.6387 110.024 21.052C110.024 19.4653 109.605 18.1733 108.766 17.176C107.95 16.1787 106.806 15.442 105.332 14.966C103.859 14.49 102.136 14.252 100.164 14.252C98.1925 14.252 96.4471 14.49 94.9285 14.966C93.4325 15.442 92.2538 16.1787 91.3925 17.176C90.5538 18.1733 90.1345 19.4653 90.1345 21.052C90.1345 22.6387 90.5538 23.9307 91.3925 24.928C92.2538 25.9253 93.4325 26.662 94.9285 27.138C96.4471 27.5913 98.1925 27.818 100.164 27.818ZM143.95 21.46V10.07H149.73V22.242C149.73 23.8513 149.469 25.2453 148.948 26.424C148.449 27.58 147.735 28.5547 146.806 29.348C145.876 30.1187 144.8 30.742 143.576 31.218C142.352 31.6713 141.026 32 139.598 32.204C138.17 32.408 136.696 32.51 135.178 32.51C133.591 32.51 132.061 32.408 130.588 32.204C129.137 32 127.8 31.6713 126.576 31.218C125.352 30.742 124.286 30.1187 123.38 29.348C122.496 28.5547 121.804 27.58 121.306 26.424C120.807 25.2453 120.558 23.8513 120.558 22.242V10.07H126.304V21.46C126.304 23.2053 126.678 24.5313 127.426 25.438C128.174 26.3447 129.205 26.968 130.52 27.308C131.857 27.648 133.41 27.818 135.178 27.818C136.878 27.818 138.385 27.648 139.7 27.308C141.037 26.968 142.08 26.3447 142.828 25.438C143.576 24.5313 143.95 23.2053 143.95 21.46Z" fill="#F3F3F3"/>
</svg>
